<svg width="24" height="24" viewBox="0 0 24 24" fill="none" xmlns="http://www.w3.org/2000/svg">
<path d="M3 4.14453H22" stroke="#767676" stroke-linecap="round" stroke-linejoin="round"/>
<path d="M11.8809 1H13.8078C14.1876 0.999794 14.5638 1.07386 14.9147 1.21797C15.2657 1.36208 15.5846 1.57341 15.8532 1.83988C16.1219 2.10635 16.335 2.42275 16.4804 2.77098C16.6257 3.11922 16.7006 3.49248 16.7006 3.86943V3.86943H8.98975C8.98975 3.10841 9.29435 2.37856 9.83655 1.84044C10.3787 1.30231 11.1141 1 11.8809 1V1Z" stroke="#767676" stroke-linecap="round" stroke-linejoin="round"/>
<path d="M12.8459 7.69531V19.173" stroke="#767676" stroke-linecap="round" stroke-linejoin="round"/>
<path d="M8.98975 7.69531V19.173" stroke="#767676" stroke-linecap="round" stroke-linejoin="round"/>
<path d="M16.7 7.69531V19.173" stroke="#767676" stroke-linecap="round" stroke-linejoin="round"/>
<path d="M16.8394 23.0016H8.8483C8.10639 23.0017 7.39278 22.7188 6.85522 22.2113C6.31766 21.7038 5.99722 21.0106 5.96025 20.2752L5.13379 3.87109H20.5539L19.7273 20.2752C19.6904 21.0106 19.37 21.7038 18.8325 22.2113C18.2949 22.7188 17.5813 23.0017 16.8394 23.0016V23.0016Z" stroke="#767676" stroke-linecap="round" stroke-linejoin="round"/>
</svg>
