<svg width="24" height="24" viewBox="0 0 24 24" fill="none" xmlns="http://www.w3.org/2000/svg">
<path d="M21.6281 7.10908L16.8913 2.37252C16.6528 2.134 16.3293 2 15.9919 2C15.6546 2 15.3311 2.134 15.0925 2.37252L12.3002 5.16457L12.3 5.16478L2.37259 15.0919C2.24753 15.217 2.15004 15.3669 2.08639 15.5319C2.08501 15.5351 2.08406 15.5385 2.08279 15.5417C2.02825 15.6853 2.0002 15.8377 2 15.9913V20.728C2.00039 21.0653 2.13453 21.3886 2.37299 21.627C2.61145 21.8655 2.93476 21.9996 3.27199 22H8.00879C8.1645 21.9999 8.31885 21.9711 8.46416 21.9152L8.46575 21.9146C8.63173 21.8509 8.78247 21.7531 8.9082 21.6274L21.6281 8.90784C21.8663 8.6691 22 8.34566 22 8.00846C22 7.67126 21.8663 7.34782 21.6281 7.10908ZM2.848 20.728V16.6638L7.33633 21.152H3.27199C3.15959 21.1519 3.05182 21.1072 2.97234 21.0277C2.89285 20.9482 2.84814 20.8404 2.848 20.728ZM8.35997 20.9764L3.02364 15.6402L12.5999 6.06417L17.9363 11.4003L8.35997 20.9764ZM21.0285 8.30843L18.5359 10.8007L13.1996 5.46454L15.6922 2.97203C15.7315 2.93266 15.7783 2.90143 15.8297 2.88013C15.8811 2.85882 15.9363 2.84785 15.9919 2.84785C16.0476 2.84785 16.1027 2.85882 16.1542 2.88013C16.2056 2.90143 16.2523 2.93266 16.2917 2.97203L21.0285 7.70859C21.1079 7.78818 21.1525 7.89602 21.1525 8.00846C21.1525 8.12089 21.1079 8.22874 21.0285 8.30832V8.30843Z" fill="#767676"/>
</svg>
