<svg width="40" height="40" viewBox="0 0 40 40" fill="none" xmlns="http://www.w3.org/2000/svg">
<path d="M25.0851 38.566H14.9174C14.3646 38.565 13.8342 38.3448 13.4431 37.9539C13.0522 37.5628 12.832 37.0324 12.8311 36.4796V29.1801C12.832 28.6273 13.0522 28.0969 13.4431 27.7058C13.8342 27.3149 14.3646 27.0947 14.9174 27.0938H25.0851C25.6379 27.0947 26.1684 27.3149 26.5595 27.7058C26.9503 28.0969 27.1705 28.6273 27.1715 29.1801V36.4796C27.1705 37.0324 26.9503 37.5628 26.5595 37.9539C26.1683 38.3448 25.6379 38.565 25.0851 38.566ZM14.9174 28.5277C14.558 28.5297 14.267 28.8206 14.2651 29.1801V36.4796C14.267 36.839 14.558 37.13 14.9174 37.1319H25.0851C25.4446 37.13 25.7356 36.839 25.7375 36.4796V29.1801C25.7356 28.8206 25.4446 28.5297 25.0851 28.5277H14.9174Z" fill="#767676"/>
<path d="M23.5832 28.5303C23.1873 28.5303 22.8662 28.2093 22.8662 27.8133V22.7942C22.8662 21.7696 22.3195 20.8227 21.4322 20.3103C20.5449 19.7982 19.4514 19.7982 18.5641 20.3103C17.6768 20.8228 17.1301 21.7697 17.1301 22.7942V24.2282C17.1301 24.6242 16.809 24.9453 16.4131 24.9453C16.0171 24.9453 15.696 24.6242 15.696 24.2282V22.7942C15.696 21.2571 16.5161 19.8368 17.8471 19.0686C19.178 18.3 20.8182 18.3 22.1492 19.0686C23.4801 19.8368 24.3002 21.2571 24.3002 22.7942V27.8133C24.3002 28.0035 24.2247 28.1859 24.0903 28.3204C23.9558 28.4548 23.7734 28.5303 23.5832 28.5303Z" fill="#767676"/>
<path d="M8.12852 12.3069C7.93774 12.3079 7.75464 12.2333 7.61925 12.0988L5.30333 9.76848C5.02324 9.4884 5.02324 9.03418 5.30333 8.75409C5.58341 8.47399 6.03762 8.474 6.31805 8.75409L8.14296 10.579L11.1294 7.589H11.1291C11.4172 7.38894 11.8077 7.42671 12.0523 7.6783C12.2965 7.9299 12.3231 8.32138 12.115 8.60338L8.61961 12.0988C8.48868 12.2288 8.31295 12.3034 8.12858 12.3069L8.12852 12.3069Z" fill="#D0343A"/>
<path d="M8.70796 17.4159C6.66385 17.4159 4.70324 16.6038 3.25766 15.1583C1.81207 13.7127 1 11.7522 1 9.70796C1 7.66377 1.81209 5.70324 3.25766 4.25766C4.70323 2.81207 6.66377 2 8.70796 2C10.7522 2 12.7127 2.81209 14.1583 4.25766C15.6039 5.70323 16.4159 7.66377 16.4159 9.70796C16.414 11.7517 15.6013 13.7111 14.1564 15.1563C12.7111 16.6012 10.7518 17.414 8.70805 17.4158L8.70796 17.4159ZM8.70796 3.43452C7.04408 3.43452 5.44812 4.09552 4.27172 5.27222C3.09508 6.44853 2.43403 8.04457 2.43403 9.70846C2.43403 11.3723 3.09503 12.9683 4.27172 14.1447C5.44804 15.3213 7.04408 15.9824 8.70796 15.9824C10.3719 15.9824 11.9678 15.3214 13.1442 14.1447C14.3208 12.9684 14.9819 11.3723 14.9819 9.70846C14.98 8.04522 14.3183 6.4505 13.1423 5.27418C11.966 4.09811 10.3713 3.43649 8.70805 3.43461L8.70796 3.43452Z" fill="#D0343A"/>
<path d="M7.09517 19.2092C7.09517 19.6052 6.77411 19.9262 6.37815 19.9262C5.98219 19.9262 5.66113 19.6052 5.66113 19.2092C5.66113 18.8132 5.98219 18.4922 6.37815 18.4922C6.77411 18.4922 7.09517 18.8132 7.09517 19.2092Z" fill="#767676"/>
<path d="M7.09517 22.0764C7.09517 22.4723 6.77411 22.7934 6.37815 22.7934C5.98219 22.7934 5.66113 22.4723 5.66113 22.0764C5.66113 21.6804 5.98219 21.3594 6.37815 21.3594C6.77411 21.3594 7.09517 21.6804 7.09517 22.0764Z" fill="#767676"/>
<path d="M7.09517 24.9436C7.09517 25.3395 6.77411 25.6606 6.37815 25.6606C5.98219 25.6606 5.66113 25.3395 5.66113 24.9436C5.66113 24.5476 5.98219 24.2266 6.37815 24.2266C6.77411 24.2266 7.09517 24.5476 7.09517 24.9436Z" fill="#767676"/>
<path d="M7.09517 27.8108C7.09517 28.2067 6.77411 28.5278 6.37815 28.5278C5.98219 28.5278 5.66113 28.2067 5.66113 27.8108C5.66113 27.4148 5.98219 27.0938 6.37815 27.0938C6.77411 27.0938 7.09517 27.4148 7.09517 27.8108Z" fill="#767676"/>
<path d="M9.24385 29.9631C9.24385 30.3591 8.92279 30.6801 8.52683 30.6801C8.13087 30.6801 7.80981 30.3591 7.80981 29.9631C7.80981 29.5672 8.13087 29.2461 8.52683 29.2461C8.92279 29.2461 9.24385 29.5672 9.24385 29.9631Z" fill="#767676"/>
<path d="M11.3964 32.1155C11.3964 32.5114 11.0754 32.8325 10.6794 32.8325C10.2835 32.8325 9.9624 32.5114 9.9624 32.1155C9.9624 31.7195 10.2835 31.3984 10.6794 31.3984C11.0754 31.3984 11.3964 31.7195 11.3964 32.1155Z" fill="#767676"/>
<path d="M34.3422 19.2092C34.3422 19.6052 34.0212 19.9262 33.6252 19.9262C33.2293 19.9262 32.9082 19.6052 32.9082 19.2092C32.9082 18.8132 33.2293 18.4922 33.6252 18.4922C34.0212 18.4922 34.3422 18.8132 34.3422 19.2092Z" fill="#767676"/>
<path d="M34.3422 22.0764C34.3422 22.4723 34.0212 22.7934 33.6252 22.7934C33.2293 22.7934 32.9082 22.4723 32.9082 22.0764C32.9082 21.6804 33.2293 21.3594 33.6252 21.3594C34.0212 21.3594 34.3422 21.6804 34.3422 22.0764Z" fill="#767676"/>
<path d="M34.3422 24.9436C34.3422 25.3395 34.0212 25.6606 33.6252 25.6606C33.2293 25.6606 32.9082 25.3395 32.9082 24.9436C32.9082 24.5476 33.2293 24.2266 33.6252 24.2266C34.0212 24.2266 34.3422 24.5476 34.3422 24.9436Z" fill="#767676"/>
<path d="M34.3422 27.8108C34.3422 28.2067 34.0212 28.5278 33.6252 28.5278C33.2293 28.5278 32.9082 28.2067 32.9082 27.8108C32.9082 27.4148 33.2293 27.0938 33.6252 27.0938C34.0212 27.0938 34.3422 27.4148 34.3422 27.8108Z" fill="#767676"/>
<path d="M32.1896 29.9631C32.1896 30.3591 31.8686 30.6801 31.4726 30.6801C31.0767 30.6801 30.7556 30.3591 30.7556 29.9631C30.7556 29.5672 31.0767 29.2461 31.4726 29.2461C31.8686 29.2461 32.1896 29.5672 32.1896 29.9631Z" fill="#767676"/>
<path d="M30.041 32.1155C30.041 32.5114 29.7199 32.8325 29.3239 32.8325C28.928 32.8325 28.6069 32.5114 28.6069 32.1155C28.6069 31.7195 28.928 31.3984 29.3239 31.3984C29.7199 31.3984 30.041 31.7195 30.041 32.1155Z" fill="#767676"/>
<path d="M19.2861 10.6037C19.2861 10.9997 18.965 11.3208 18.5691 11.3208C18.1731 11.3208 17.8521 10.9997 17.8521 10.6037C17.8521 10.2078 18.1731 9.88672 18.5691 9.88672C18.965 9.88672 19.2861 10.2078 19.2861 10.6037Z" fill="#767676"/>
<path d="M22.1511 10.6037C22.1511 10.9997 21.83 11.3208 21.4341 11.3208C21.0381 11.3208 20.717 10.9997 20.717 10.6037C20.717 10.2078 21.0381 9.88672 21.4341 9.88672C21.83 9.88672 22.1511 10.2078 22.1511 10.6037Z" fill="#767676"/>
<path d="M30.7145 12.3069C30.5237 12.3079 30.3406 12.2333 30.2052 12.0988L27.8893 9.76848C27.6092 9.4884 27.6092 9.03418 27.8893 8.75409C28.1694 8.47399 28.6236 8.474 28.904 8.75409L30.7289 10.579L33.7154 7.589H33.715C34.0031 7.38894 34.3936 7.42671 34.6382 7.6783C34.8825 7.9299 34.909 8.32138 34.701 8.60338L31.2055 12.0988C31.0746 12.2288 30.8989 12.3034 30.7145 12.3069L30.7145 12.3069Z" fill="#D0343A"/>
<path d="M31.2937 17.4159C29.2495 17.4159 27.2889 16.6038 25.8434 15.1583C24.3978 13.7127 23.5857 11.7522 23.5857 9.70796C23.5857 7.66377 24.3978 5.70324 25.8434 4.25766C27.2889 2.81207 29.2495 2 31.2937 2C33.3378 2 35.2984 2.81209 36.744 4.25766C38.1896 5.70323 39.0016 7.66377 39.0016 9.70796C38.9997 11.7517 38.187 13.7111 36.7421 15.1563C35.2968 16.6012 33.3375 17.414 31.2937 17.4158L31.2937 17.4159ZM31.2937 3.43452C29.6298 3.43452 28.0338 4.09552 26.8574 5.27222C25.6808 6.44853 25.0197 8.04457 25.0197 9.70846C25.0197 11.3723 25.6807 12.9683 26.8574 14.1447C28.0337 15.3213 29.6298 15.9824 31.2937 15.9824C32.9575 15.9824 34.5535 15.3214 35.7299 14.1447C36.9065 12.9684 37.5676 11.3723 37.5676 9.70846C37.5657 8.04522 36.904 6.4505 35.728 5.27418C34.5517 4.09811 32.957 3.43649 31.2937 3.43461L31.2937 3.43452Z" fill="#D0343A"/>
</svg>
