<svg width="24" height="24" viewBox="0 0 24 24" fill="none" xmlns="http://www.w3.org/2000/svg">
<path d="M14.9433 22.9986H9.05697C8.73694 22.998 8.42986 22.8715 8.20344 22.6471C7.97717 22.4224 7.84968 22.1178 7.84912 21.8004V17.6083C7.84968 17.2909 7.97717 16.9863 8.20344 16.7616C8.42988 16.5372 8.73694 16.4107 9.05697 16.4102H14.9433C15.2633 16.4107 15.5704 16.5372 15.7968 16.7616C16.0231 16.9863 16.1505 17.2909 16.1511 17.6083V21.8004C16.1506 22.1179 16.0231 22.4225 15.7968 22.6471C15.5703 22.8715 15.2633 22.998 14.9433 22.9986V22.9986ZM9.05697 17.2337C8.84886 17.2348 8.68042 17.4019 8.67931 17.6083V21.8004C8.68042 22.0068 8.84886 22.1739 9.05697 22.175H14.9433C15.1514 22.1739 15.3198 22.0068 15.3209 21.8004V17.6083C15.3198 17.4019 15.1514 17.2348 14.9433 17.2337H9.05697Z" fill="#767676"/>
<path d="M14.0739 17.2336C13.8446 17.2336 13.6588 17.0492 13.6588 16.8218V13.9394C13.6588 13.3509 13.3423 12.8071 12.8286 12.5129C12.3149 12.2188 11.6819 12.2188 11.1682 12.5129C10.6545 12.8072 10.338 13.351 10.338 13.9394V14.7629C10.338 14.9903 10.1521 15.1747 9.92291 15.1747C9.69368 15.1747 9.50781 14.9903 9.50781 14.7629V13.9394C9.50781 13.0566 9.98259 12.241 10.7531 11.7998C11.5236 11.3584 12.4732 11.3584 13.2437 11.7998C14.0142 12.241 14.489 13.0566 14.489 13.9394V16.8218C14.489 16.931 14.4452 17.0358 14.3674 17.113C14.2896 17.1902 14.1839 17.2336 14.0739 17.2336Z" fill="#767676"/>
<path d="M5.1268 7.91971C5.01636 7.92026 4.91036 7.87743 4.83197 7.80022L3.49124 6.46192C3.32909 6.30107 3.32909 6.04022 3.49124 5.87937C3.65339 5.71851 3.91634 5.71851 4.07868 5.87937L5.13516 6.9274L6.86409 5.21026H6.86391C7.03069 5.09537 7.25676 5.11706 7.39836 5.26155C7.53975 5.40604 7.55513 5.63086 7.43468 5.79281L5.4111 7.80021C5.33531 7.87485 5.23357 7.91768 5.12684 7.9197L5.1268 7.91971Z" fill="#D0343A"/>
<path d="M5.4623 10.8532C4.27892 10.8532 3.14389 10.3869 2.30701 9.55669C1.47013 8.72651 1 7.60059 1 6.42662C1 5.25266 1.47013 4.12674 2.30701 3.29656C3.14388 2.46637 4.27888 2 5.4623 2C6.64573 2 7.78072 2.46638 8.6176 3.29656C9.45448 4.12674 9.9246 5.25266 9.9246 6.42662C9.92349 7.60035 9.45299 8.72561 8.61651 9.55556C7.77982 10.3854 6.64554 10.8521 5.46235 10.8532L5.4623 10.8532ZM5.4623 2.82384C4.49904 2.82384 3.57511 3.20344 2.89407 3.87921C2.21289 4.55476 1.83019 5.47135 1.83019 6.42691C1.83019 7.38246 2.21286 8.29901 2.89407 8.97461C3.57506 9.65034 4.49904 10.03 5.4623 10.03C6.42556 10.03 7.34949 9.65037 8.03053 8.97461C8.71172 8.29906 9.09441 7.38246 9.09441 6.42691C9.0933 5.47173 8.71026 4.55589 8.02944 3.88034C7.34845 3.20493 6.42523 2.82497 5.46235 2.82388L5.4623 2.82384Z" fill="#D0343A"/>
<path d="M4.52868 11.8805C4.52868 12.1079 4.34281 12.2923 4.11358 12.2923C3.88435 12.2923 3.69849 12.1079 3.69849 11.8805C3.69849 11.6531 3.88435 11.4688 4.11358 11.4688C4.34281 11.4688 4.52868 11.6531 4.52868 11.8805Z" fill="#767676"/>
<path d="M4.52868 13.529C4.52868 13.7564 4.34281 13.9407 4.11358 13.9407C3.88435 13.9407 3.69849 13.7564 3.69849 13.529C3.69849 13.3016 3.88435 13.1172 4.11358 13.1172C4.34281 13.1172 4.52868 13.3016 4.52868 13.529Z" fill="#767676"/>
<path d="M4.52868 15.1774C4.52868 15.4048 4.34281 15.5892 4.11358 15.5892C3.88435 15.5892 3.69849 15.4048 3.69849 15.1774C3.69849 14.95 3.88435 14.7656 4.11358 14.7656C4.34281 14.7656 4.52868 14.95 4.52868 15.1774Z" fill="#767676"/>
<path d="M4.52868 16.8219C4.52868 17.0493 4.34281 17.2337 4.11358 17.2337C3.88435 17.2337 3.69849 17.0493 3.69849 16.8219C3.69849 16.5945 3.88435 16.4102 4.11358 16.4102C4.34281 16.4102 4.52868 16.5945 4.52868 16.8219Z" fill="#767676"/>
<path d="M5.77257 18.0602C5.77257 18.2876 5.58671 18.472 5.35748 18.472C5.12825 18.472 4.94238 18.2876 4.94238 18.0602C4.94238 17.8328 5.12825 17.6484 5.35748 17.6484C5.58671 17.6484 5.77257 17.8328 5.77257 18.0602Z" fill="#767676"/>
<path d="M7.01867 19.2946C7.01867 19.522 6.8328 19.7064 6.60357 19.7064C6.37434 19.7064 6.18848 19.522 6.18848 19.2946C6.18848 19.0672 6.37434 18.8828 6.60357 18.8828C6.8328 18.8828 7.01867 19.0672 7.01867 19.2946Z" fill="#767676"/>
<path d="M20.3024 11.8805C20.3024 12.1079 20.1165 12.2923 19.8873 12.2923C19.658 12.2923 19.4722 12.1079 19.4722 11.8805C19.4722 11.6531 19.658 11.4688 19.8873 11.4688C20.1165 11.4688 20.3024 11.6531 20.3024 11.8805Z" fill="#767676"/>
<path d="M20.3024 13.529C20.3024 13.7564 20.1165 13.9407 19.8873 13.9407C19.658 13.9407 19.4722 13.7564 19.4722 13.529C19.4722 13.3016 19.658 13.1172 19.8873 13.1172C20.1165 13.1172 20.3024 13.3016 20.3024 13.529Z" fill="#767676"/>
<path d="M20.3024 15.1774C20.3024 15.4048 20.1165 15.5892 19.8873 15.5892C19.658 15.5892 19.4722 15.4048 19.4722 15.1774C19.4722 14.95 19.658 14.7656 19.8873 14.7656C20.1165 14.7656 20.3024 14.95 20.3024 15.1774Z" fill="#767676"/>
<path d="M20.3024 16.8219C20.3024 17.0493 20.1165 17.2337 19.8873 17.2337C19.658 17.2337 19.4722 17.0493 19.4722 16.8219C19.4722 16.5945 19.658 16.4102 19.8873 16.4102C20.1165 16.4102 20.3024 16.5945 20.3024 16.8219Z" fill="#767676"/>
<path d="M19.0563 18.0602C19.0563 18.2876 18.8704 18.472 18.6412 18.472C18.4119 18.472 18.2261 18.2876 18.2261 18.0602C18.2261 17.8328 18.4119 17.6484 18.6412 17.6484C18.8704 17.6484 19.0563 17.8328 19.0563 18.0602Z" fill="#767676"/>
<path d="M17.8124 19.2946C17.8124 19.522 17.6265 19.7064 17.3973 19.7064C17.168 19.7064 16.9822 19.522 16.9822 19.2946C16.9822 19.0672 17.168 18.8828 17.3973 18.8828C17.6265 18.8828 17.8124 19.0672 17.8124 19.2946Z" fill="#767676"/>
<path d="M11.5863 6.93912C11.5863 7.16652 11.4004 7.3509 11.1712 7.3509C10.942 7.3509 10.7561 7.16652 10.7561 6.93912C10.7561 6.71173 10.942 6.52734 11.1712 6.52734C11.4004 6.52734 11.5863 6.71173 11.5863 6.93912Z" fill="#767676"/>
<path d="M13.2447 6.93912C13.2447 7.16652 13.0589 7.3509 12.8296 7.3509C12.6004 7.3509 12.4146 7.16652 12.4146 6.93912C12.4146 6.71173 12.6004 6.52734 12.8296 6.52734C13.0589 6.52734 13.2447 6.71173 13.2447 6.93912Z" fill="#767676"/>
<path d="M18.2022 7.91971C18.0918 7.92026 17.9858 7.87743 17.9074 7.80022L16.5667 6.46192C16.4045 6.30107 16.4045 6.04022 16.5667 5.87937C16.7288 5.71851 16.9918 5.71851 17.1541 5.87937L18.2106 6.9274L19.9395 5.21026H19.9393C20.1061 5.09537 20.3322 5.11706 20.4738 5.26155C20.6152 5.40604 20.6306 5.63086 20.5101 5.79281L18.4865 7.80021C18.4107 7.87485 18.309 7.91768 18.2023 7.9197L18.2022 7.91971Z" fill="#D0343A"/>
<path d="M18.5377 10.8532C17.3544 10.8532 16.2193 10.3869 15.3824 9.55669C14.5456 8.72651 14.0754 7.60059 14.0754 6.42662C14.0754 5.25266 14.5456 4.12674 15.3824 3.29656C16.2193 2.46637 17.3543 2 18.5377 2C19.7212 2 20.8562 2.46638 21.693 3.29656C22.5299 4.12674 23 5.25266 23 6.42662C22.9989 7.60035 22.5284 8.72561 21.6919 9.55556C20.8553 10.3854 19.721 10.8521 18.5378 10.8532L18.5377 10.8532ZM18.5377 2.82384C17.5745 2.82384 16.6506 3.20344 15.9695 3.87921C15.2883 4.55476 14.9056 5.47135 14.9056 6.42691C14.9056 7.38246 15.2883 8.29901 15.9695 8.97461C16.6505 9.65034 17.5745 10.03 18.5377 10.03C19.501 10.03 20.4249 9.65037 21.106 8.97461C21.7872 8.29906 22.1699 7.38246 22.1699 6.42691C22.1687 5.47173 21.7857 4.55589 21.1049 3.88034C20.4239 3.20493 19.5007 2.82497 18.5378 2.82388L18.5377 2.82384Z" fill="#D0343A"/>
</svg>
