<svg width="24" height="24" viewBox="0 0 24 24" fill="none" xmlns="http://www.w3.org/2000/svg">
<path d="M12.5 4L12.87 3.66366C12.778 3.56249 12.6486 3.50339 12.5119 3.50014C12.3752 3.49689 12.2431 3.54976 12.1464 3.64645L12.5 4ZM7 9.5L6.64645 9.14645C6.50345 9.28945 6.46067 9.5045 6.53806 9.69134C6.61545 9.87818 6.79777 10 7 10V9.5ZM10 9.5H10.5V9H10V9.5ZM10 15.5H9.5C9.5 15.7761 9.72386 16 10 16V15.5ZM15 15.5V16C15.2761 16 15.5 15.7761 15.5 15.5H15ZM15 9.5V9H14.5V9.5H15ZM17.5 9.5V10C17.6979 10 17.8772 9.88327 17.9573 9.70228C18.0373 9.52129 18.0031 9.3101 17.87 9.16366L17.5 9.5ZM12.1464 3.64645L6.64645 9.14645L7.35355 9.85355L12.8536 4.35355L12.1464 3.64645ZM7 10H10V9H7V10ZM9.5 9.5V15.5H10.5V9.5H9.5ZM10 16H15V15H10V16ZM15.5 15.5V9.5H14.5V15.5H15.5ZM15 10C15.0019 10 15.0038 10 15.0057 10C15.0076 10 15.0095 10 15.0114 10C15.0133 10 15.0152 10 15.0171 10C15.019 10 15.0209 10 15.0228 10C15.0247 10 15.0266 10 15.0285 10C15.0304 10 15.0323 10 15.0341 10C15.036 10 15.0379 10 15.0398 10C15.0417 10 15.0436 10 15.0455 10C15.0473 10 15.0492 10 15.0511 10C15.053 10 15.0548 10 15.0567 10C15.0586 10 15.0605 10 15.0623 10C15.0642 10 15.0661 10 15.068 10C15.0698 10 15.0717 10 15.0736 10C15.0754 10 15.0773 10 15.0791 10C15.081 10 15.0829 10 15.0847 10C15.0866 10 15.0884 10 15.0903 10C15.0922 10 15.094 10 15.0959 10C15.0977 10 15.0996 10 15.1014 10C15.1033 10 15.1051 10 15.107 10C15.1088 10 15.1107 10 15.1125 10C15.1143 10 15.1162 10 15.118 10C15.1199 10 15.1217 10 15.1235 10C15.1254 10 15.1272 10 15.1291 10C15.1309 10 15.1327 10 15.1346 10C15.1364 10 15.1382 10 15.14 10C15.1419 10 15.1437 10 15.1455 10C15.1474 10 15.1492 10 15.151 10C15.1528 10 15.1546 10 15.1565 10C15.1583 10 15.1601 10 15.1619 10C15.1637 10 15.1656 10 15.1674 10C15.1692 10 15.171 10 15.1728 10C15.1746 10 15.1764 10 15.1782 10C15.18 10 15.1819 10 15.1837 10C15.1855 10 15.1873 10 15.1891 10C15.1909 10 15.1927 10 15.1945 10C15.1963 10 15.1981 10 15.1999 10C15.2017 10 15.2035 10 15.2053 10C15.2071 10 15.2089 10 15.2106 10C15.2124 10 15.2142 10 15.216 10C15.2178 10 15.2196 10 15.2214 10C15.2232 10 15.2249 10 15.2267 10C15.2285 10 15.2303 10 15.2321 10C15.2339 10 15.2356 10 15.2374 10C15.2392 10 15.241 10 15.2427 10C15.2445 10 15.2463 10 15.2481 10C15.2498 10 15.2516 10 15.2534 10C15.2552 10 15.2569 10 15.2587 10C15.2605 10 15.2622 10 15.264 10C15.2657 10 15.2675 10 15.2693 10C15.271 10 15.2728 10 15.2746 10C15.2763 10 15.2781 10 15.2798 10C15.2816 10 15.2833 10 15.2851 10C15.2868 10 15.2886 10 15.2904 10C15.2921 10 15.2939 10 15.2956 10C15.2974 10 15.2991 10 15.3008 10C15.3026 10 15.3043 10 15.3061 10C15.3078 10 15.3096 10 15.3113 10C15.313 10 15.3148 10 15.3165 10C15.3183 10 15.32 10 15.3217 10C15.3235 10 15.3252 10 15.3269 10C15.3287 10 15.3304 10 15.3321 10C15.3339 10 15.3356 10 15.3373 10C15.3391 10 15.3408 10 15.3425 10C15.3442 10 15.346 10 15.3477 10C15.3494 10 15.3511 10 15.3529 10C15.3546 10 15.3563 10 15.358 10C15.3597 10 15.3614 10 15.3632 10C15.3649 10 15.3666 10 15.3683 10C15.37 10 15.3717 10 15.3734 10C15.3752 10 15.3769 10 15.3786 10C15.3803 10 15.382 10 15.3837 10C15.3854 10 15.3871 10 15.3888 10C15.3905 10 15.3922 10 15.3939 10C15.3956 10 15.3973 10 15.399 10C15.4007 10 15.4024 10 15.4041 10C15.4058 10 15.4075 10 15.4092 10C15.4109 10 15.4126 10 15.4143 10C15.416 10 15.4177 10 15.4194 10C15.4211 10 15.4228 10 15.4244 10C15.4261 10 15.4278 10 15.4295 10C15.4312 10 15.4329 10 15.4346 10C15.4362 10 15.4379 10 15.4396 10C15.4413 10 15.443 10 15.4446 10C15.4463 10 15.448 10 15.4497 10C15.4514 10 15.453 10 15.4547 10C15.4564 10 15.4581 10 15.4597 10C15.4614 10 15.4631 10 15.4647 10C15.4664 10 15.4681 10 15.4698 10C15.4714 10 15.4731 10 15.4748 10C15.4764 10 15.4781 10 15.4797 10C15.4814 10 15.4831 10 15.4847 10C15.4864 10 15.4881 10 15.4897 10C15.4914 10 15.493 10 15.4947 10C15.4964 10 15.498 10 15.4997 10C15.5013 10 15.503 10 15.5046 10C15.5063 10 15.5079 10 15.5096 10C15.5112 10 15.5129 10 15.5145 10C15.5162 10 15.5178 10 15.5195 10C15.5211 10 15.5228 10 15.5244 10C15.5261 10 15.5277 10 15.5294 10C15.531 10 15.5326 10 15.5343 10C15.5359 10 15.5376 10 15.5392 10C15.5408 10 15.5425 10 15.5441 10C15.5458 10 15.5474 10 15.549 10C15.5507 10 15.5523 10 15.5539 10C15.5556 10 15.5572 10 15.5588 10C15.5605 10 15.5621 10 15.5637 10C15.5654 10 15.567 10 15.5686 10C15.5702 10 15.5719 10 15.5735 10C15.5751 10 15.5767 10 15.5784 10C15.58 10 15.5816 10 15.5832 10C15.5849 10 15.5865 10 15.5881 10C15.5897 10 15.5913 10 15.593 10C15.5946 10 15.5962 10 15.5978 10C15.5994 10 15.6011 10 15.6027 10C15.6043 10 15.6059 10 15.6075 10C15.6091 10 15.6107 10 15.6123 10C15.614 10 15.6156 10 15.6172 10C15.6188 10 15.6204 10 15.622 10C15.6236 10 15.6252 10 15.6268 10C15.6284 10 15.63 10 15.6316 10C15.6332 10 15.6349 10 15.6365 10C15.6381 10 15.6397 10 15.6413 10C15.6429 10 15.6445 10 15.6461 10C15.6477 10 15.6493 10 15.6509 10C15.6525 10 15.654 10 15.6556 10C15.6572 10 15.6588 10 15.6604 10C15.662 10 15.6636 10 15.6652 10C15.6668 10 15.6684 10 15.67 10C15.6716 10 15.6732 10 15.6748 10C15.6763 10 15.6779 10 15.6795 10C15.6811 10 15.6827 10 15.6843 10C15.6859 10 15.6875 10 15.689 10C15.6906 10 15.6922 10 15.6938 10C15.6954 10 15.697 10 15.6985 10C15.7001 10 15.7017 10 15.7033 10C15.7049 10 15.7064 10 15.708 10C15.7096 10 15.7112 10 15.7128 10C15.7143 10 15.7159 10 15.7175 10C15.7191 10 15.7206 10 15.7222 10C15.7238 10 15.7254 10 15.7269 10C15.7285 10 15.7301 10 15.7316 10C15.7332 10 15.7348 10 15.7364 10C15.7379 10 15.7395 10 15.7411 10C15.7426 10 15.7442 10 15.7458 10C15.7473 10 15.7489 10 15.7505 10C15.752 10 15.7536 10 15.7552 10C15.7567 10 15.7583 10 15.7598 10C15.7614 10 15.763 10 15.7645 10C15.7661 10 15.7677 10 15.7692 10C15.7708 10 15.7723 10 15.7739 10C15.7754 10 15.777 10 15.7786 10C15.7801 10 15.7817 10 15.7832 10C15.7848 10 15.7863 10 15.7879 10C15.7895 10 15.791 10 15.7926 10C15.7941 10 15.7957 10 15.7972 10C15.7988 10 15.8003 10 15.8019 10C15.8034 10 15.805 10 15.8065 10C15.8081 10 15.8096 10 15.8112 10C15.8127 10 15.8143 10 15.8158 10C15.8174 10 15.8189 10 15.8204 10C15.822 10 15.8235 10 15.8251 10C15.8266 10 15.8282 10 15.8297 10C15.8313 10 15.8328 10 15.8343 10C15.8359 10 15.8374 10 15.839 10C15.8405 10 15.842 10 15.8436 10C15.8451 10 15.8467 10 15.8482 10C15.8497 10 15.8513 10 15.8528 10C15.8544 10 15.8559 10 15.8574 10C15.859 10 15.8605 10 15.862 10C15.8636 10 15.8651 10 15.8666 10C15.8682 10 15.8697 10 15.8712 10C15.8728 10 15.8743 10 15.8758 10C15.8774 10 15.8789 10 15.8804 10C15.882 10 15.8835 10 15.885 10C15.8866 10 15.8881 10 15.8896 10C15.8911 10 15.8927 10 15.8942 10C15.8957 10 15.8973 10 15.8988 10C15.9003 10 15.9018 10 15.9034 10C15.9049 10 15.9064 10 15.9079 10C15.9095 10 15.911 10 15.9125 10C15.914 10 15.9156 10 15.9171 10C15.9186 10 15.9201 10 15.9216 10C15.9232 10 15.9247 10 15.9262 10C15.9277 10 15.9293 10 15.9308 10C15.9323 10 15.9338 10 15.9353 10C15.9369 10 15.9384 10 15.9399 10C15.9414 10 15.9429 10 15.9444 10C15.946 10 15.9475 10 15.949 10C15.9505 10 15.952 10 15.9535 10C15.9551 10 15.9566 10 15.9581 10C15.9596 10 15.9611 10 15.9626 10C15.9641 10 15.9657 10 15.9672 10C15.9687 10 15.9702 10 15.9717 10C15.9732 10 15.9747 10 15.9762 10C15.9778 10 15.9793 10 15.9808 10C15.9823 10 15.9838 10 15.9853 10C15.9868 10 15.9883 10 15.9898 10C15.9914 10 15.9929 10 15.9944 10C15.9959 10 15.9974 10 15.9989 10C16.0004 10 16.0019 10 16.0034 10C16.0049 10 16.0064 10 16.0079 10C16.0094 10 16.011 10 16.0125 10C16.014 10 16.0155 10 16.017 10C16.0185 10 16.02 10 16.0215 10C16.023 10 16.0245 10 16.026 10C16.0275 10 16.029 10 16.0305 10C16.032 10 16.0335 10 16.035 10C16.0365 10 16.038 10 16.0395 10C16.041 10 16.0425 10 16.044 10C16.0455 10 16.047 10 16.0485 10C16.05 10 16.0515 10 16.053 10C16.0545 10 16.056 10 16.0575 10C16.059 10 16.0605 10 16.062 10C16.0635 10 16.065 10 16.0665 10C16.068 10 16.0695 10 16.071 10C16.0725 10 16.074 10 16.0755 10C16.077 10 16.0785 10 16.08 10C16.0815 10 16.083 10 16.0845 10C16.086 10 16.0875 10 16.089 10C16.0905 10 16.092 10 16.0935 10C16.095 10 16.0965 10 16.098 10C16.0995 10 16.101 10 16.1025 10C16.104 10 16.1055 10 16.1069 10C16.1084 10 16.1099 10 16.1114 10C16.1129 10 16.1144 10 16.1159 10C16.1174 10 16.1189 10 16.1204 10C16.1219 10 16.1234 10 16.1249 10C16.1264 10 16.1279 10 16.1293 10C16.1308 10 16.1323 10 16.1338 10C16.1353 10 16.1368 10 16.1383 10C16.1398 10 16.1413 10 16.1428 10C16.1443 10 16.1458 10 16.1473 10C16.1487 10 16.1502 10 16.1517 10C16.1532 10 16.1547 10 16.1562 10C16.1577 10 16.1592 10 16.1607 10C16.1622 10 16.1637 10 16.1651 10C16.1666 10 16.1681 10 16.1696 10C16.1711 10 16.1726 10 16.1741 10C16.1756 10 16.1771 10 16.1786 10C16.18 10 16.1815 10 16.183 10C16.1845 10 16.186 10 16.1875 10C16.189 10 16.1905 10 16.192 10C16.1934 10 16.1949 10 16.1964 10C16.1979 10 16.1994 10 16.2009 10C16.2024 10 16.2039 10 16.2054 10C16.2068 10 16.2083 10 16.2098 10C16.2113 10 16.2128 10 16.2143 10C16.2158 10 16.2173 10 16.2188 10C16.2202 10 16.2217 10 16.2232 10C16.2247 10 16.2262 10 16.2277 10C16.2292 10 16.2307 10 16.2321 10C16.2336 10 16.2351 10 16.2366 10C16.2381 10 16.2396 10 16.2411 10C16.2426 10 16.244 10 16.2455 10C16.247 10 16.2485 10 16.25 10C16.2515 10 16.253 10 16.2545 10C16.256 10 16.2574 10 16.2589 10C16.2604 10 16.2619 10 16.2634 10C16.2649 10 16.2664 10 16.2679 10C16.2693 10 16.2708 10 16.2723 10C16.2738 10 16.2753 10 16.2768 10C16.2783 10 16.2798 10 16.2812 10C16.2827 10 16.2842 10 16.2857 10C16.2872 10 16.2887 10 16.2902 10C16.2917 10 16.2932 10 16.2946 10C16.2961 10 16.2976 10 16.2991 10C16.3006 10 16.3021 10 16.3036 10C16.3051 10 16.3066 10 16.308 10C16.3095 10 16.311 10 16.3125 10C16.314 10 16.3155 10 16.317 10C16.3185 10 16.32 10 16.3214 10C16.3229 10 16.3244 10 16.3259 10C16.3274 10 16.3289 10 16.3304 10C16.3319 10 16.3334 10 16.3349 10C16.3363 10 16.3378 10 16.3393 10C16.3408 10 16.3423 10 16.3438 10C16.3453 10 16.3468 10 16.3483 10C16.3498 10 16.3513 10 16.3527 10C16.3542 10 16.3557 10 16.3572 10C16.3587 10 16.3602 10 16.3617 10C16.3632 10 16.3647 10 16.3662 10C16.3677 10 16.3692 10 16.3707 10C16.3721 10 16.3736 10 16.3751 10C16.3766 10 16.3781 10 16.3796 10C16.3811 10 16.3826 10 16.3841 10C16.3856 10 16.3871 10 16.3886 10C16.3901 10 16.3916 10 16.3931 10C16.3945 10 16.396 10 16.3975 10C16.399 10 16.4005 10 16.402 10C16.4035 10 16.405 10 16.4065 10C16.408 10 16.4095 10 16.411 10C16.4125 10 16.414 10 16.4155 10C16.417 10 16.4185 10 16.42 10C16.4215 10 16.423 10 16.4245 10C16.426 10 16.4275 10 16.429 10C16.4305 10 16.432 10 16.4335 10C16.435 10 16.4365 10 16.438 10C16.4395 10 16.441 10 16.4425 10C16.444 10 16.4455 10 16.447 10C16.4485 10 16.45 10 16.4515 10C16.453 10 16.4545 10 16.456 10C16.4575 10 16.459 10 16.4605 10C16.462 10 16.4635 10 16.465 10C16.4665 10 16.468 10 16.4695 10C16.471 10 16.4725 10 16.474 10C16.4755 10 16.477 10 16.4785 10C16.48 10 16.4815 10 16.483 10C16.4845 10 16.486 10 16.4875 10C16.489 10 16.4906 10 16.4921 10C16.4936 10 16.4951 10 16.4966 10C16.4981 10 16.4996 10 16.5011 10C16.5026 10 16.5041 10 16.5056 10C16.5071 10 16.5086 10 16.5102 10C16.5117 10 16.5132 10 16.5147 10C16.5162 10 16.5177 10 16.5192 10C16.5207 10 16.5222 10 16.5238 10C16.5253 10 16.5268 10 16.5283 10C16.5298 10 16.5313 10 16.5328 10C16.5343 10 16.5359 10 16.5374 10C16.5389 10 16.5404 10 16.5419 10C16.5434 10 16.5449 10 16.5465 10C16.548 10 16.5495 10 16.551 10C16.5525 10 16.554 10 16.5556 10C16.5571 10 16.5586 10 16.5601 10C16.5616 10 16.5631 10 16.5647 10C16.5662 10 16.5677 10 16.5692 10C16.5707 10 16.5723 10 16.5738 10C16.5753 10 16.5768 10 16.5784 10C16.5799 10 16.5814 10 16.5829 10C16.5844 10 16.586 10 16.5875 10C16.589 10 16.5905 10 16.5921 10C16.5936 10 16.5951 10 16.5966 10C16.5982 10 16.5997 10 16.6012 10C16.6027 10 16.6043 10 16.6058 10C16.6073 10 16.6089 10 16.6104 10C16.6119 10 16.6134 10 16.615 10C16.6165 10 16.618 10 16.6196 10C16.6211 10 16.6226 10 16.6242 10C16.6257 10 16.6272 10 16.6288 10C16.6303 10 16.6318 10 16.6334 10C16.6349 10 16.6364 10 16.638 10C16.6395 10 16.641 10 16.6426 10C16.6441 10 16.6456 10 16.6472 10C16.6487 10 16.6503 10 16.6518 10C16.6533 10 16.6549 10 16.6564 10C16.658 10 16.6595 10 16.661 10C16.6626 10 16.6641 10 16.6657 10C16.6672 10 16.6687 10 16.6703 10C16.6718 10 16.6734 10 16.6749 10C16.6765 10 16.678 10 16.6796 10C16.6811 10 16.6826 10 16.6842 10C16.6857 10 16.6873 10 16.6888 10C16.6904 10 16.6919 10 16.6935 10C16.695 10 16.6966 10 16.6981 10C16.6997 10 16.7012 10 16.7028 10C16.7043 10 16.7059 10 16.7074 10C16.709 10 16.7105 10 16.7121 10C16.7137 10 16.7152 10 16.7168 10C16.7183 10 16.7199 10 16.7214 10C16.723 10 16.7246 10 16.7261 10C16.7277 10 16.7292 10 16.7308 10C16.7323 10 16.7339 10 16.7355 10C16.737 10 16.7386 10 16.7402 10C16.7417 10 16.7433 10 16.7448 10C16.7464 10 16.748 10 16.7495 10C16.7511 10 16.7527 10 16.7542 10C16.7558 10 16.7574 10 16.7589 10C16.7605 10 16.7621 10 16.7636 10C16.7652 10 16.7668 10 16.7684 10C16.7699 10 16.7715 10 16.7731 10C16.7746 10 16.7762 10 16.7778 10C16.7794 10 16.7809 10 16.7825 10C16.7841 10 16.7857 10 16.7872 10C16.7888 10 16.7904 10 16.792 10C16.7936 10 16.7951 10 16.7967 10C16.7983 10 16.7999 10 16.8015 10C16.803 10 16.8046 10 16.8062 10C16.8078 10 16.8094 10 16.811 10C16.8125 10 16.8141 10 16.8157 10C16.8173 10 16.8189 10 16.8205 10C16.8221 10 16.8237 10 16.8252 10C16.8268 10 16.8284 10 16.83 10C16.8316 10 16.8332 10 16.8348 10C16.8364 10 16.838 10 16.8396 10C16.8412 10 16.8428 10 16.8444 10C16.846 10 16.8475 10 16.8491 10C16.8507 10 16.8523 10 16.8539 10C16.8555 10 16.8571 10 16.8587 10C16.8603 10 16.8619 10 16.8635 10C16.8651 10 16.8668 10 16.8684 10C16.87 10 16.8716 10 16.8732 10C16.8748 10 16.8764 10 16.878 10C16.8796 10 16.8812 10 16.8828 10C16.8844 10 16.886 10 16.8877 10C16.8893 10 16.8909 10 16.8925 10C16.8941 10 16.8957 10 16.8973 10C16.8989 10 16.9006 10 16.9022 10C16.9038 10 16.9054 10 16.907 10C16.9087 10 16.9103 10 16.9119 10C16.9135 10 16.9151 10 16.9168 10C16.9184 10 16.92 10 16.9216 10C16.9233 10 16.9249 10 16.9265 10C16.9281 10 16.9298 10 16.9314 10C16.933 10 16.9346 10 16.9363 10C16.9379 10 16.9395 10 16.9412 10C16.9428 10 16.9444 10 16.9461 10C16.9477 10 16.9493 10 16.951 10C16.9526 10 16.9542 10 16.9559 10C16.9575 10 16.9592 10 16.9608 10C16.9624 10 16.9641 10 16.9657 10C16.9674 10 16.969 10 16.9706 10C16.9723 10 16.9739 10 16.9756 10C16.9772 10 16.9789 10 16.9805 10C16.9822 10 16.9838 10 16.9855 10C16.9871 10 16.9888 10 16.9904 10C16.9921 10 16.9937 10 16.9954 10C16.997 10 16.9987 10 17.0003 10C17.002 10 17.0036 10 17.0053 10C17.007 10 17.0086 10 17.0103 10C17.0119 10 17.0136 10 17.0153 10C17.0169 10 17.0186 10 17.0203 10C17.0219 10 17.0236 10 17.0252 10C17.0269 10 17.0286 10 17.0302 10C17.0319 10 17.0336 10 17.0353 10C17.0369 10 17.0386 10 17.0403 10C17.0419 10 17.0436 10 17.0453 10C17.047 10 17.0486 10 17.0503 10C17.052 10 17.0537 10 17.0554 10C17.057 10 17.0587 10 17.0604 10C17.0621 10 17.0638 10 17.0654 10C17.0671 10 17.0688 10 17.0705 10C17.0722 10 17.0739 10 17.0756 10C17.0772 10 17.0789 10 17.0806 10C17.0823 10 17.084 10 17.0857 10C17.0874 10 17.0891 10 17.0908 10C17.0925 10 17.0942 10 17.0959 10C17.0976 10 17.0993 10 17.101 10C17.1027 10 17.1044 10 17.1061 10C17.1078 10 17.1095 10 17.1112 10C17.1129 10 17.1146 10 17.1163 10C17.118 10 17.1197 10 17.1214 10C17.1231 10 17.1248 10 17.1266 10C17.1283 10 17.13 10 17.1317 10C17.1334 10 17.1351 10 17.1368 10C17.1386 10 17.1403 10 17.142 10C17.1437 10 17.1454 10 17.1471 10C17.1489 10 17.1506 10 17.1523 10C17.154 10 17.1558 10 17.1575 10C17.1592 10 17.1609 10 17.1627 10C17.1644 10 17.1661 10 17.1679 10C17.1696 10 17.1713 10 17.1731 10C17.1748 10 17.1765 10 17.1783 10C17.18 10 17.1817 10 17.1835 10C17.1852 10 17.187 10 17.1887 10C17.1904 10 17.1922 10 17.1939 10C17.1957 10 17.1974 10 17.1992 10C17.2009 10 17.2026 10 17.2044 10C17.2061 10 17.2079 10 17.2096 10C17.2114 10 17.2132 10 17.2149 10C17.2167 10 17.2184 10 17.2202 10C17.2219 10 17.2237 10 17.2254 10C17.2272 10 17.229 10 17.2307 10C17.2325 10 17.2343 10 17.236 10C17.2378 10 17.2395 10 17.2413 10C17.2431 10 17.2448 10 17.2466 10C17.2484 10 17.2502 10 17.2519 10C17.2537 10 17.2555 10 17.2573 10C17.259 10 17.2608 10 17.2626 10C17.2644 10 17.2661 10 17.2679 10C17.2697 10 17.2715 10 17.2733 10C17.2751 10 17.2768 10 17.2786 10C17.2804 10 17.2822 10 17.284 10C17.2858 10 17.2876 10 17.2894 10C17.2911 10 17.2929 10 17.2947 10C17.2965 10 17.2983 10 17.3001 10C17.3019 10 17.3037 10 17.3055 10C17.3073 10 17.3091 10 17.3109 10C17.3127 10 17.3145 10 17.3163 10C17.3181 10 17.32 10 17.3218 10C17.3236 10 17.3254 10 17.3272 10C17.329 10 17.3308 10 17.3326 10C17.3344 10 17.3363 10 17.3381 10C17.3399 10 17.3417 10 17.3435 10C17.3454 10 17.3472 10 17.349 10C17.3508 10 17.3526 10 17.3545 10C17.3563 10 17.3581 10 17.36 10C17.3618 10 17.3636 10 17.3654 10C17.3673 10 17.3691 10 17.3709 10C17.3728 10 17.3746 10 17.3765 10C17.3783 10 17.3801 10 17.382 10C17.3838 10 17.3857 10 17.3875 10C17.3893 10 17.3912 10 17.393 10C17.3949 10 17.3967 10 17.3986 10C17.4004 10 17.4023 10 17.4041 10C17.406 10 17.4078 10 17.4097 10C17.4116 10 17.4134 10 17.4153 10C17.4171 10 17.419 10 17.4209 10C17.4227 10 17.4246 10 17.4264 10C17.4283 10 17.4302 10 17.432 10C17.4339 10 17.4358 10 17.4377 10C17.4395 10 17.4414 10 17.4433 10C17.4452 10 17.447 10 17.4489 10C17.4508 10 17.4527 10 17.4545 10C17.4564 10 17.4583 10 17.4602 10C17.4621 10 17.464 10 17.4659 10C17.4677 10 17.4696 10 17.4715 10C17.4734 10 17.4753 10 17.4772 10C17.4791 10 17.481 10 17.4829 10C17.4848 10 17.4867 10 17.4886 10C17.4905 10 17.4924 10 17.4943 10C17.4962 10 17.4981 10 17.5 10V9C17.4981 9 17.4962 9 17.4943 9C17.4924 9 17.4905 9 17.4886 9C17.4867 9 17.4848 9 17.4829 9C17.481 9 17.4791 9 17.4772 9C17.4753 9 17.4734 9 17.4715 9C17.4696 9 17.4677 9 17.4659 9C17.464 9 17.4621 9 17.4602 9C17.4583 9 17.4564 9 17.4545 9C17.4527 9 17.4508 9 17.4489 9C17.447 9 17.4452 9 17.4433 9C17.4414 9 17.4395 9 17.4377 9C17.4358 9 17.4339 9 17.432 9C17.4302 9 17.4283 9 17.4264 9C17.4246 9 17.4227 9 17.4209 9C17.419 9 17.4171 9 17.4153 9C17.4134 9 17.4116 9 17.4097 9C17.4078 9 17.406 9 17.4041 9C17.4023 9 17.4004 9 17.3986 9C17.3967 9 17.3949 9 17.393 9C17.3912 9 17.3893 9 17.3875 9C17.3857 9 17.3838 9 17.382 9C17.3801 9 17.3783 9 17.3765 9C17.3746 9 17.3728 9 17.3709 9C17.3691 9 17.3673 9 17.3654 9C17.3636 9 17.3618 9 17.36 9C17.3581 9 17.3563 9 17.3545 9C17.3526 9 17.3508 9 17.349 9C17.3472 9 17.3454 9 17.3435 9C17.3417 9 17.3399 9 17.3381 9C17.3363 9 17.3344 9 17.3326 9C17.3308 9 17.329 9 17.3272 9C17.3254 9 17.3236 9 17.3218 9C17.32 9 17.3181 9 17.3163 9C17.3145 9 17.3127 9 17.3109 9C17.3091 9 17.3073 9 17.3055 9C17.3037 9 17.3019 9 17.3001 9C17.2983 9 17.2965 9 17.2947 9C17.2929 9 17.2911 9 17.2894 9C17.2876 9 17.2858 9 17.284 9C17.2822 9 17.2804 9 17.2786 9C17.2768 9 17.2751 9 17.2733 9C17.2715 9 17.2697 9 17.2679 9C17.2661 9 17.2644 9 17.2626 9C17.2608 9 17.259 9 17.2573 9C17.2555 9 17.2537 9 17.2519 9C17.2502 9 17.2484 9 17.2466 9C17.2448 9 17.2431 9 17.2413 9C17.2395 9 17.2378 9 17.236 9C17.2343 9 17.2325 9 17.2307 9C17.229 9 17.2272 9 17.2254 9C17.2237 9 17.2219 9 17.2202 9C17.2184 9 17.2167 9 17.2149 9C17.2132 9 17.2114 9 17.2096 9C17.2079 9 17.2061 9 17.2044 9C17.2026 9 17.2009 9 17.1992 9C17.1974 9 17.1957 9 17.1939 9C17.1922 9 17.1904 9 17.1887 9C17.187 9 17.1852 9 17.1835 9C17.1817 9 17.18 9 17.1783 9C17.1765 9 17.1748 9 17.1731 9C17.1713 9 17.1696 9 17.1679 9C17.1661 9 17.1644 9 17.1627 9C17.1609 9 17.1592 9 17.1575 9C17.1558 9 17.154 9 17.1523 9C17.1506 9 17.1489 9 17.1471 9C17.1454 9 17.1437 9 17.142 9C17.1403 9 17.1386 9 17.1368 9C17.1351 9 17.1334 9 17.1317 9C17.13 9 17.1283 9 17.1266 9C17.1248 9 17.1231 9 17.1214 9C17.1197 9 17.118 9 17.1163 9C17.1146 9 17.1129 9 17.1112 9C17.1095 9 17.1078 9 17.1061 9C17.1044 9 17.1027 9 17.101 9C17.0993 9 17.0976 9 17.0959 9C17.0942 9 17.0925 9 17.0908 9C17.0891 9 17.0874 9 17.0857 9C17.084 9 17.0823 9 17.0806 9C17.0789 9 17.0772 9 17.0756 9C17.0739 9 17.0722 9 17.0705 9C17.0688 9 17.0671 9 17.0654 9C17.0638 9 17.0621 9 17.0604 9C17.0587 9 17.057 9 17.0554 9C17.0537 9 17.052 9 17.0503 9C17.0486 9 17.047 9 17.0453 9C17.0436 9 17.0419 9 17.0403 9C17.0386 9 17.0369 9 17.0353 9C17.0336 9 17.0319 9 17.0302 9C17.0286 9 17.0269 9 17.0252 9C17.0236 9 17.0219 9 17.0203 9C17.0186 9 17.0169 9 17.0153 9C17.0136 9 17.0119 9 17.0103 9C17.0086 9 17.007 9 17.0053 9C17.0036 9 17.002 9 17.0003 9C16.9987 9 16.997 9 16.9954 9C16.9937 9 16.9921 9 16.9904 9C16.9888 9 16.9871 9 16.9855 9C16.9838 9 16.9822 9 16.9805 9C16.9789 9 16.9772 9 16.9756 9C16.9739 9 16.9723 9 16.9706 9C16.969 9 16.9674 9 16.9657 9C16.9641 9 16.9624 9 16.9608 9C16.9592 9 16.9575 9 16.9559 9C16.9542 9 16.9526 9 16.951 9C16.9493 9 16.9477 9 16.9461 9C16.9444 9 16.9428 9 16.9412 9C16.9395 9 16.9379 9 16.9363 9C16.9346 9 16.933 9 16.9314 9C16.9298 9 16.9281 9 16.9265 9C16.9249 9 16.9233 9 16.9216 9C16.92 9 16.9184 9 16.9168 9C16.9151 9 16.9135 9 16.9119 9C16.9103 9 16.9087 9 16.907 9C16.9054 9 16.9038 9 16.9022 9C16.9006 9 16.8989 9 16.8973 9C16.8957 9 16.8941 9 16.8925 9C16.8909 9 16.8893 9 16.8877 9C16.886 9 16.8844 9 16.8828 9C16.8812 9 16.8796 9 16.878 9C16.8764 9 16.8748 9 16.8732 9C16.8716 9 16.87 9 16.8684 9C16.8668 9 16.8651 9 16.8635 9C16.8619 9 16.8603 9 16.8587 9C16.8571 9 16.8555 9 16.8539 9C16.8523 9 16.8507 9 16.8491 9C16.8475 9 16.846 9 16.8444 9C16.8428 9 16.8412 9 16.8396 9C16.838 9 16.8364 9 16.8348 9C16.8332 9 16.8316 9 16.83 9C16.8284 9 16.8268 9 16.8252 9C16.8237 9 16.8221 9 16.8205 9C16.8189 9 16.8173 9 16.8157 9C16.8141 9 16.8125 9 16.811 9C16.8094 9 16.8078 9 16.8062 9C16.8046 9 16.803 9 16.8015 9C16.7999 9 16.7983 9 16.7967 9C16.7951 9 16.7936 9 16.792 9C16.7904 9 16.7888 9 16.7872 9C16.7857 9 16.7841 9 16.7825 9C16.7809 9 16.7794 9 16.7778 9C16.7762 9 16.7746 9 16.7731 9C16.7715 9 16.7699 9 16.7684 9C16.7668 9 16.7652 9 16.7636 9C16.7621 9 16.7605 9 16.7589 9C16.7574 9 16.7558 9 16.7542 9C16.7527 9 16.7511 9 16.7495 9C16.748 9 16.7464 9 16.7448 9C16.7433 9 16.7417 9 16.7402 9C16.7386 9 16.737 9 16.7355 9C16.7339 9 16.7323 9 16.7308 9C16.7292 9 16.7277 9 16.7261 9C16.7246 9 16.723 9 16.7214 9C16.7199 9 16.7183 9 16.7168 9C16.7152 9 16.7137 9 16.7121 9C16.7105 9 16.709 9 16.7074 9C16.7059 9 16.7043 9 16.7028 9C16.7012 9 16.6997 9 16.6981 9C16.6966 9 16.695 9 16.6935 9C16.6919 9 16.6904 9 16.6888 9C16.6873 9 16.6857 9 16.6842 9C16.6826 9 16.6811 9 16.6796 9C16.678 9 16.6765 9 16.6749 9C16.6734 9 16.6718 9 16.6703 9C16.6687 9 16.6672 9 16.6657 9C16.6641 9 16.6626 9 16.661 9C16.6595 9 16.658 9 16.6564 9C16.6549 9 16.6533 9 16.6518 9C16.6503 9 16.6487 9 16.6472 9C16.6456 9 16.6441 9 16.6426 9C16.641 9 16.6395 9 16.638 9C16.6364 9 16.6349 9 16.6334 9C16.6318 9 16.6303 9 16.6288 9C16.6272 9 16.6257 9 16.6242 9C16.6226 9 16.6211 9 16.6196 9C16.618 9 16.6165 9 16.615 9C16.6134 9 16.6119 9 16.6104 9C16.6089 9 16.6073 9 16.6058 9C16.6043 9 16.6027 9 16.6012 9C16.5997 9 16.5982 9 16.5966 9C16.5951 9 16.5936 9 16.5921 9C16.5905 9 16.589 9 16.5875 9C16.586 9 16.5844 9 16.5829 9C16.5814 9 16.5799 9 16.5784 9C16.5768 9 16.5753 9 16.5738 9C16.5723 9 16.5707 9 16.5692 9C16.5677 9 16.5662 9 16.5647 9C16.5631 9 16.5616 9 16.5601 9C16.5586 9 16.5571 9 16.5556 9C16.554 9 16.5525 9 16.551 9C16.5495 9 16.548 9 16.5465 9C16.5449 9 16.5434 9 16.5419 9C16.5404 9 16.5389 9 16.5374 9C16.5359 9 16.5343 9 16.5328 9C16.5313 9 16.5298 9 16.5283 9C16.5268 9 16.5253 9 16.5238 9C16.5222 9 16.5207 9 16.5192 9C16.5177 9 16.5162 9 16.5147 9C16.5132 9 16.5117 9 16.5102 9C16.5086 9 16.5071 9 16.5056 9C16.5041 9 16.5026 9 16.5011 9C16.4996 9 16.4981 9 16.4966 9C16.4951 9 16.4936 9 16.4921 9C16.4906 9 16.489 9 16.4875 9C16.486 9 16.4845 9 16.483 9C16.4815 9 16.48 9 16.4785 9C16.477 9 16.4755 9 16.474 9C16.4725 9 16.471 9 16.4695 9C16.468 9 16.4665 9 16.465 9C16.4635 9 16.462 9 16.4605 9C16.459 9 16.4575 9 16.456 9C16.4545 9 16.453 9 16.4515 9C16.45 9 16.4485 9 16.447 9C16.4455 9 16.444 9 16.4425 9C16.441 9 16.4395 9 16.438 9C16.4365 9 16.435 9 16.4335 9C16.432 9 16.4305 9 16.429 9C16.4275 9 16.426 9 16.4245 9C16.423 9 16.4215 9 16.42 9C16.4185 9 16.417 9 16.4155 9C16.414 9 16.4125 9 16.411 9C16.4095 9 16.408 9 16.4065 9C16.405 9 16.4035 9 16.402 9C16.4005 9 16.399 9 16.3975 9C16.396 9 16.3945 9 16.3931 9C16.3916 9 16.3901 9 16.3886 9C16.3871 9 16.3856 9 16.3841 9C16.3826 9 16.3811 9 16.3796 9C16.3781 9 16.3766 9 16.3751 9C16.3736 9 16.3721 9 16.3707 9C16.3692 9 16.3677 9 16.3662 9C16.3647 9 16.3632 9 16.3617 9C16.3602 9 16.3587 9 16.3572 9C16.3557 9 16.3542 9 16.3527 9C16.3513 9 16.3498 9 16.3483 9C16.3468 9 16.3453 9 16.3438 9C16.3423 9 16.3408 9 16.3393 9C16.3378 9 16.3363 9 16.3349 9C16.3334 9 16.3319 9 16.3304 9C16.3289 9 16.3274 9 16.3259 9C16.3244 9 16.3229 9 16.3214 9C16.32 9 16.3185 9 16.317 9C16.3155 9 16.314 9 16.3125 9C16.311 9 16.3095 9 16.308 9C16.3066 9 16.3051 9 16.3036 9C16.3021 9 16.3006 9 16.2991 9C16.2976 9 16.2961 9 16.2946 9C16.2932 9 16.2917 9 16.2902 9C16.2887 9 16.2872 9 16.2857 9C16.2842 9 16.2827 9 16.2812 9C16.2798 9 16.2783 9 16.2768 9C16.2753 9 16.2738 9 16.2723 9C16.2708 9 16.2693 9 16.2679 9C16.2664 9 16.2649 9 16.2634 9C16.2619 9 16.2604 9 16.2589 9C16.2574 9 16.256 9 16.2545 9C16.253 9 16.2515 9 16.25 9C16.2485 9 16.247 9 16.2455 9C16.244 9 16.2426 9 16.2411 9C16.2396 9 16.2381 9 16.2366 9C16.2351 9 16.2336 9 16.2321 9C16.2307 9 16.2292 9 16.2277 9C16.2262 9 16.2247 9 16.2232 9C16.2217 9 16.2202 9 16.2188 9C16.2173 9 16.2158 9 16.2143 9C16.2128 9 16.2113 9 16.2098 9C16.2083 9 16.2068 9 16.2054 9C16.2039 9 16.2024 9 16.2009 9C16.1994 9 16.1979 9 16.1964 9C16.1949 9 16.1934 9 16.192 9C16.1905 9 16.189 9 16.1875 9C16.186 9 16.1845 9 16.183 9C16.1815 9 16.18 9 16.1786 9C16.1771 9 16.1756 9 16.1741 9C16.1726 9 16.1711 9 16.1696 9C16.1681 9 16.1666 9 16.1651 9C16.1637 9 16.1622 9 16.1607 9C16.1592 9 16.1577 9 16.1562 9C16.1547 9 16.1532 9 16.1517 9C16.1502 9 16.1487 9 16.1473 9C16.1458 9 16.1443 9 16.1428 9C16.1413 9 16.1398 9 16.1383 9C16.1368 9 16.1353 9 16.1338 9C16.1323 9 16.1308 9 16.1293 9C16.1279 9 16.1264 9 16.1249 9C16.1234 9 16.1219 9 16.1204 9C16.1189 9 16.1174 9 16.1159 9C16.1144 9 16.1129 9 16.1114 9C16.1099 9 16.1084 9 16.1069 9C16.1055 9 16.104 9 16.1025 9C16.101 9 16.0995 9 16.098 9C16.0965 9 16.095 9 16.0935 9C16.092 9 16.0905 9 16.089 9C16.0875 9 16.086 9 16.0845 9C16.083 9 16.0815 9 16.08 9C16.0785 9 16.077 9 16.0755 9C16.074 9 16.0725 9 16.071 9C16.0695 9 16.068 9 16.0665 9C16.065 9 16.0635 9 16.062 9C16.0605 9 16.059 9 16.0575 9C16.056 9 16.0545 9 16.053 9C16.0515 9 16.05 9 16.0485 9C16.047 9 16.0455 9 16.044 9C16.0425 9 16.041 9 16.0395 9C16.038 9 16.0365 9 16.035 9C16.0335 9 16.032 9 16.0305 9C16.029 9 16.0275 9 16.026 9C16.0245 9 16.023 9 16.0215 9C16.02 9 16.0185 9 16.017 9C16.0155 9 16.014 9 16.0125 9C16.011 9 16.0094 9 16.0079 9C16.0064 9 16.0049 9 16.0034 9C16.0019 9 16.0004 9 15.9989 9C15.9974 9 15.9959 9 15.9944 9C15.9929 9 15.9914 9 15.9898 9C15.9883 9 15.9868 9 15.9853 9C15.9838 9 15.9823 9 15.9808 9C15.9793 9 15.9778 9 15.9762 9C15.9747 9 15.9732 9 15.9717 9C15.9702 9 15.9687 9 15.9672 9C15.9657 9 15.9641 9 15.9626 9C15.9611 9 15.9596 9 15.9581 9C15.9566 9 15.9551 9 15.9535 9C15.952 9 15.9505 9 15.949 9C15.9475 9 15.946 9 15.9444 9C15.9429 9 15.9414 9 15.9399 9C15.9384 9 15.9369 9 15.9353 9C15.9338 9 15.9323 9 15.9308 9C15.9293 9 15.9277 9 15.9262 9C15.9247 9 15.9232 9 15.9216 9C15.9201 9 15.9186 9 15.9171 9C15.9156 9 15.914 9 15.9125 9C15.911 9 15.9095 9 15.9079 9C15.9064 9 15.9049 9 15.9034 9C15.9018 9 15.9003 9 15.8988 9C15.8973 9 15.8957 9 15.8942 9C15.8927 9 15.8911 9 15.8896 9C15.8881 9 15.8866 9 15.885 9C15.8835 9 15.882 9 15.8804 9C15.8789 9 15.8774 9 15.8758 9C15.8743 9 15.8728 9 15.8712 9C15.8697 9 15.8682 9 15.8666 9C15.8651 9 15.8636 9 15.862 9C15.8605 9 15.859 9 15.8574 9C15.8559 9 15.8544 9 15.8528 9C15.8513 9 15.8497 9 15.8482 9C15.8467 9 15.8451 9 15.8436 9C15.842 9 15.8405 9 15.839 9C15.8374 9 15.8359 9 15.8343 9C15.8328 9 15.8313 9 15.8297 9C15.8282 9 15.8266 9 15.8251 9C15.8235 9 15.822 9 15.8204 9C15.8189 9 15.8174 9 15.8158 9C15.8143 9 15.8127 9 15.8112 9C15.8096 9 15.8081 9 15.8065 9C15.805 9 15.8034 9 15.8019 9C15.8003 9 15.7988 9 15.7972 9C15.7957 9 15.7941 9 15.7926 9C15.791 9 15.7895 9 15.7879 9C15.7863 9 15.7848 9 15.7832 9C15.7817 9 15.7801 9 15.7786 9C15.777 9 15.7754 9 15.7739 9C15.7723 9 15.7708 9 15.7692 9C15.7677 9 15.7661 9 15.7645 9C15.763 9 15.7614 9 15.7598 9C15.7583 9 15.7567 9 15.7552 9C15.7536 9 15.752 9 15.7505 9C15.7489 9 15.7473 9 15.7458 9C15.7442 9 15.7426 9 15.7411 9C15.7395 9 15.7379 9 15.7364 9C15.7348 9 15.7332 9 15.7316 9C15.7301 9 15.7285 9 15.7269 9C15.7254 9 15.7238 9 15.7222 9C15.7206 9 15.7191 9 15.7175 9C15.7159 9 15.7143 9 15.7128 9C15.7112 9 15.7096 9 15.708 9C15.7064 9 15.7049 9 15.7033 9C15.7017 9 15.7001 9 15.6985 9C15.697 9 15.6954 9 15.6938 9C15.6922 9 15.6906 9 15.689 9C15.6875 9 15.6859 9 15.6843 9C15.6827 9 15.6811 9 15.6795 9C15.6779 9 15.6763 9 15.6748 9C15.6732 9 15.6716 9 15.67 9C15.6684 9 15.6668 9 15.6652 9C15.6636 9 15.662 9 15.6604 9C15.6588 9 15.6572 9 15.6556 9C15.654 9 15.6525 9 15.6509 9C15.6493 9 15.6477 9 15.6461 9C15.6445 9 15.6429 9 15.6413 9C15.6397 9 15.6381 9 15.6365 9C15.6349 9 15.6332 9 15.6316 9C15.63 9 15.6284 9 15.6268 9C15.6252 9 15.6236 9 15.622 9C15.6204 9 15.6188 9 15.6172 9C15.6156 9 15.614 9 15.6123 9C15.6107 9 15.6091 9 15.6075 9C15.6059 9 15.6043 9 15.6027 9C15.6011 9 15.5994 9 15.5978 9C15.5962 9 15.5946 9 15.593 9C15.5913 9 15.5897 9 15.5881 9C15.5865 9 15.5849 9 15.5832 9C15.5816 9 15.58 9 15.5784 9C15.5767 9 15.5751 9 15.5735 9C15.5719 9 15.5702 9 15.5686 9C15.567 9 15.5654 9 15.5637 9C15.5621 9 15.5605 9 15.5588 9C15.5572 9 15.5556 9 15.5539 9C15.5523 9 15.5507 9 15.549 9C15.5474 9 15.5458 9 15.5441 9C15.5425 9 15.5408 9 15.5392 9C15.5376 9 15.5359 9 15.5343 9C15.5326 9 15.531 9 15.5294 9C15.5277 9 15.5261 9 15.5244 9C15.5228 9 15.5211 9 15.5195 9C15.5178 9 15.5162 9 15.5145 9C15.5129 9 15.5112 9 15.5096 9C15.5079 9 15.5063 9 15.5046 9C15.503 9 15.5013 9 15.4997 9C15.498 9 15.4964 9 15.4947 9C15.493 9 15.4914 9 15.4897 9C15.4881 9 15.4864 9 15.4847 9C15.4831 9 15.4814 9 15.4797 9C15.4781 9 15.4764 9 15.4748 9C15.4731 9 15.4714 9 15.4698 9C15.4681 9 15.4664 9 15.4647 9C15.4631 9 15.4614 9 15.4597 9C15.4581 9 15.4564 9 15.4547 9C15.453 9 15.4514 9 15.4497 9C15.448 9 15.4463 9 15.4446 9C15.443 9 15.4413 9 15.4396 9C15.4379 9 15.4362 9 15.4346 9C15.4329 9 15.4312 9 15.4295 9C15.4278 9 15.4261 9 15.4244 9C15.4228 9 15.4211 9 15.4194 9C15.4177 9 15.416 9 15.4143 9C15.4126 9 15.4109 9 15.4092 9C15.4075 9 15.4058 9 15.4041 9C15.4024 9 15.4007 9 15.399 9C15.3973 9 15.3956 9 15.3939 9C15.3922 9 15.3905 9 15.3888 9C15.3871 9 15.3854 9 15.3837 9C15.382 9 15.3803 9 15.3786 9C15.3769 9 15.3752 9 15.3734 9C15.3717 9 15.37 9 15.3683 9C15.3666 9 15.3649 9 15.3632 9C15.3614 9 15.3597 9 15.358 9C15.3563 9 15.3546 9 15.3529 9C15.3511 9 15.3494 9 15.3477 9C15.346 9 15.3442 9 15.3425 9C15.3408 9 15.3391 9 15.3373 9C15.3356 9 15.3339 9 15.3321 9C15.3304 9 15.3287 9 15.3269 9C15.3252 9 15.3235 9 15.3217 9C15.32 9 15.3183 9 15.3165 9C15.3148 9 15.313 9 15.3113 9C15.3096 9 15.3078 9 15.3061 9C15.3043 9 15.3026 9 15.3008 9C15.2991 9 15.2974 9 15.2956 9C15.2939 9 15.2921 9 15.2904 9C15.2886 9 15.2868 9 15.2851 9C15.2833 9 15.2816 9 15.2798 9C15.2781 9 15.2763 9 15.2746 9C15.2728 9 15.271 9 15.2693 9C15.2675 9 15.2657 9 15.264 9C15.2622 9 15.2605 9 15.2587 9C15.2569 9 15.2552 9 15.2534 9C15.2516 9 15.2498 9 15.2481 9C15.2463 9 15.2445 9 15.2427 9C15.241 9 15.2392 9 15.2374 9C15.2356 9 15.2339 9 15.2321 9C15.2303 9 15.2285 9 15.2267 9C15.2249 9 15.2232 9 15.2214 9C15.2196 9 15.2178 9 15.216 9C15.2142 9 15.2124 9 15.2106 9C15.2089 9 15.2071 9 15.2053 9C15.2035 9 15.2017 9 15.1999 9C15.1981 9 15.1963 9 15.1945 9C15.1927 9 15.1909 9 15.1891 9C15.1873 9 15.1855 9 15.1837 9C15.1819 9 15.18 9 15.1782 9C15.1764 9 15.1746 9 15.1728 9C15.171 9 15.1692 9 15.1674 9C15.1656 9 15.1637 9 15.1619 9C15.1601 9 15.1583 9 15.1565 9C15.1546 9 15.1528 9 15.151 9C15.1492 9 15.1474 9 15.1455 9C15.1437 9 15.1419 9 15.14 9C15.1382 9 15.1364 9 15.1346 9C15.1327 9 15.1309 9 15.1291 9C15.1272 9 15.1254 9 15.1235 9C15.1217 9 15.1199 9 15.118 9C15.1162 9 15.1143 9 15.1125 9C15.1107 9 15.1088 9 15.107 9C15.1051 9 15.1033 9 15.1014 9C15.0996 9 15.0977 9 15.0959 9C15.094 9 15.0922 9 15.0903 9C15.0884 9 15.0866 9 15.0847 9C15.0829 9 15.081 9 15.0791 9C15.0773 9 15.0754 9 15.0736 9C15.0717 9 15.0698 9 15.068 9C15.0661 9 15.0642 9 15.0623 9C15.0605 9 15.0586 9 15.0567 9C15.0548 9 15.053 9 15.0511 9C15.0492 9 15.0473 9 15.0455 9C15.0436 9 15.0417 9 15.0398 9C15.0379 9 15.036 9 15.0341 9C15.0323 9 15.0304 9 15.0285 9C15.0266 9 15.0247 9 15.0228 9C15.0209 9 15.019 9 15.0171 9C15.0152 9 15.0133 9 15.0114 9C15.0095 9 15.0076 9 15.0057 9C15.0038 9 15.0019 9 15 9V10ZM17.87 9.16366L12.87 3.66366L12.13 4.33634L17.13 9.83634L17.87 9.16366Z" fill="#767676"/>
<path d="M6 19L19 19" stroke="#767676" stroke-width="2" stroke-linecap="round" stroke-linejoin="round"/>
</svg>
