<svg width="24" height="24" viewBox="0 0 24 24" fill="none" xmlns="http://www.w3.org/2000/svg">
<g clip-path="url(#clip0_636_25597)">
<path d="M10.4016 11.5156C10.1662 11.5156 9.97144 11.7126 9.97144 11.9507V23.1721C9.97144 23.4103 10.1662 23.6072 10.4016 23.6072C10.6371 23.6072 10.8318 23.4103 10.8318 23.1721V11.9507C10.8318 11.708 10.6371 11.5156 10.4016 11.5156Z" fill="#767676"/>
<path d="M0.892103 5.90625C0.656631 5.90625 0.461914 6.1032 0.461914 6.34136V17.5627C0.461914 17.8009 0.656631 17.9979 0.892103 17.9979C1.12757 17.9979 1.32229 17.8009 1.32229 17.5627V6.34136C1.32229 6.09862 1.12757 5.90625 0.892103 5.90625Z" fill="#767676"/>
<path d="M20.083 6.13672C19.8475 6.13672 19.6528 6.33367 19.6528 6.57183V14.5871C19.6528 14.8253 19.8475 15.0222 20.083 15.0222C20.3185 15.0222 20.5132 14.8253 20.5132 14.5871V6.57183C20.5132 6.32909 20.3185 6.13672 20.083 6.13672Z" fill="#767676"/>
<path d="M0.892151 17.1289C0.742717 17.1289 0.597811 17.2068 0.52083 17.3442C0.403094 17.5503 0.471018 17.8205 0.674792 17.9396L10.1842 23.5503C10.388 23.6694 10.6552 23.6007 10.7729 23.3946C10.8906 23.1884 10.8227 22.9182 10.6189 22.7991L1.10951 17.1884C1.04158 17.1472 0.964603 17.1289 0.892151 17.1289Z" fill="#767676"/>
<path d="M11.8732 21.8225L10.2521 22.7981C10.1525 22.8576 10.0845 22.9492 10.0574 23.0637C10.0302 23.1782 10.0438 23.2927 10.1027 23.3935C10.1615 23.4942 10.2521 23.5629 10.3608 23.595C10.4694 23.6225 10.5826 23.6087 10.6823 23.5492L12.9872 22.166C13.0868 22.1064 13.1547 22.0148 13.1819 21.9003C13.2091 21.7858 13.1955 21.6713 13.1366 21.5706C13.0777 21.4698 12.9872 21.3965 12.8785 21.369C12.7698 21.3416 12.6566 21.3553 12.557 21.4148L11.8732 21.8225Z" fill="#767676"/>
<path d="M10.9222 0.579264C10.8044 0.368577 10.5418 0.299874 10.3335 0.414378L0.692741 5.96552C0.484439 6.08461 0.416515 6.35026 0.529722 6.56094C0.64293 6.77163 0.9101 6.84033 1.1184 6.72583L10.7637 1.1701C10.9675 1.05102 11.0399 0.78537 10.9222 0.579264Z" fill="#767676"/>
<path d="M20.4589 6.69916C20.5812 6.49305 20.5087 6.22282 20.3049 6.10374L10.7412 0.419766C10.5374 0.296102 10.2702 0.369385 10.1525 0.575491C10.0302 0.781598 10.1027 1.05183 10.3064 1.17091L19.8747 6.8503C20.074 6.97396 20.3412 6.90526 20.4589 6.69916Z" fill="#767676"/>
<path d="M10.8362 12.2649C10.9584 12.0588 10.886 11.7886 10.6822 11.6695L1.1139 5.99008C0.91013 5.86641 0.64296 5.9397 0.525224 6.1458C0.407488 6.35191 0.475413 6.62214 0.679187 6.74122L10.2475 12.4206C10.4513 12.5397 10.7184 12.471 10.8362 12.2649Z" fill="#767676"/>
<path d="M20.4317 6.25895C20.314 6.04826 20.0513 5.97956 19.843 6.09407L10.2023 11.6452C9.99396 11.7643 9.92604 12.0299 10.0392 12.2406C10.157 12.4513 10.4196 12.52 10.6279 12.4055L20.2687 6.85437C20.477 6.73071 20.5494 6.46506 20.4317 6.25895Z" fill="#767676"/>
<path d="M14.7261 2.84766C14.6446 2.84766 14.5631 2.87056 14.4906 2.92094L5.53365 8.85682C5.43856 8.92094 5.37063 9.01712 5.34799 9.13163C5.32535 9.24613 5.34799 9.36063 5.40686 9.45682C5.47026 9.553 5.56535 9.6217 5.67856 9.6446C5.79177 9.6675 5.90497 9.6446 6.00007 9.58048L14.9616 3.6446C15.1608 3.51178 15.2152 3.24155 15.0838 3.04002C15.0023 2.91636 14.8665 2.84766 14.7261 2.84766Z" fill="#767676"/>
<path d="M17.1532 17.9297C15.8129 17.9297 14.7261 19.0289 14.7261 20.3846V21.1541C14.7261 22.5098 15.8129 23.6091 17.1532 23.6091H23.0808C23.3163 23.6091 23.511 23.4121 23.511 23.174C23.511 22.9358 23.3163 22.7388 23.0808 22.7388H17.1532C16.2883 22.7388 15.5865 22.0289 15.5865 21.1541V20.3846C15.5865 19.5098 16.2883 18.7999 17.1532 18.7999H22.2883C22.5238 18.7999 22.7185 18.603 22.7185 18.3648C22.7185 18.1266 22.5238 17.9297 22.2883 17.9297H17.1532Z" fill="#767676"/>
<path d="M21.1834 17.0605L21.1925 17.0696L22.474 18.3658L21.1925 19.6574C21.111 19.7399 21.0657 19.8498 21.0657 19.9643C21.0657 20.0788 21.111 20.1887 21.1925 20.2712C21.36 20.4406 21.6317 20.4406 21.7993 20.2712L23.3842 18.6681C23.4657 18.5857 23.511 18.4757 23.511 18.3612C23.511 18.2467 23.4657 18.1368 23.3842 18.0544L21.7993 16.4513C21.6317 16.2819 21.36 16.2819 21.1925 16.4513C21.111 16.5338 21.0657 16.6437 21.0657 16.7582C21.0657 16.8727 21.1064 16.978 21.1834 17.0605Z" fill="#767676"/>
</g>
<defs>
<clipPath id="clip0_636_25597">
<rect width="24" height="24" fill="white"/>
</clipPath>
</defs>
</svg>
