<svg width="24" height="24" viewBox="0 0 24 24" fill="none" xmlns="http://www.w3.org/2000/svg">
<path d="M23.75 14.0801C23.75 14.2374 23.6889 14.3882 23.58 14.4994C23.4712 14.6105 23.3236 14.673 23.1698 14.673H21.429V16.4516C21.429 16.6089 21.3679 16.7597 21.2591 16.8708C21.1503 16.982 21.0027 17.0445 20.8488 17.0445C20.6949 17.0445 20.5473 16.982 20.4385 16.8708C20.3297 16.7597 20.2685 16.6089 20.2685 16.4516V14.673H18.5278C18.3739 14.673 18.2263 14.6105 18.1175 14.4994C18.0087 14.3882 17.9476 14.2374 17.9476 14.0801C17.9476 13.9229 18.0087 13.7721 18.1175 13.6609C18.2263 13.5497 18.3739 13.4873 18.5278 13.4873H20.2685V11.7086C20.2685 11.5514 20.3297 11.4006 20.4385 11.2894C20.5473 11.1782 20.6949 11.1158 20.8488 11.1158C21.0027 11.1158 21.1503 11.1782 21.2591 11.2894C21.3679 11.4006 21.429 11.5514 21.429 11.7086V13.4873H23.1698C23.3236 13.4873 23.4712 13.5497 23.58 13.6609C23.6889 13.7721 23.75 13.9229 23.75 14.0801ZM18.3731 20.0187C18.4714 20.14 18.5194 20.2958 18.5068 20.4528C18.4941 20.6097 18.4218 20.7554 18.3054 20.8586C18.1981 20.9462 18.0655 20.9949 17.9282 20.997C17.8438 20.9975 17.7602 20.9793 17.6833 20.9434C17.6065 20.9076 17.5383 20.855 17.4834 20.7895C16.5221 19.6163 15.3208 18.6728 13.9641 18.0255C12.6073 17.3781 11.1281 17.0426 9.63072 17.0426C8.13331 17.0426 6.65413 17.3781 5.29737 18.0255C3.94062 18.6728 2.73931 19.6163 1.77807 20.7895C1.67805 20.91 1.53525 20.985 1.38109 20.998C1.22693 21.011 1.07404 20.9608 0.956061 20.8586C0.838078 20.7564 0.764664 20.6105 0.751969 20.453C0.739274 20.2955 0.788337 20.1393 0.888366 20.0187C2.38223 18.203 4.38297 16.8964 6.62312 16.2738C5.36796 15.5886 4.37289 14.4945 3.79601 13.1653C3.21912 11.8362 3.09352 10.3481 3.43915 8.93763C3.78477 7.52715 4.58181 6.27514 5.70362 5.38053C6.82543 4.48591 8.20767 4 9.63072 4C11.0538 4 12.436 4.48591 13.5578 5.38053C14.6796 6.27514 15.4767 7.52715 15.8223 8.93763C16.1679 10.3481 16.0423 11.8362 15.4654 13.1653C14.8885 14.4945 13.8935 15.5886 12.6383 16.2738C14.8785 16.8964 16.8792 18.203 18.3731 20.0187ZM9.63072 15.8587C10.6636 15.8587 11.6732 15.5458 12.532 14.9595C13.3908 14.3732 14.0601 13.5398 14.4554 12.5648C14.8507 11.5898 14.9541 10.517 14.7526 9.48193C14.5511 8.44688 14.0537 7.49612 13.3234 6.74989C12.593 6.00366 11.6625 5.49547 10.6495 5.28958C9.63651 5.0837 8.5865 5.18937 7.63227 5.59322C6.67804 5.99708 5.86244 6.68099 5.28862 7.55847C4.71479 8.43594 4.40852 9.46757 4.40852 10.5229C4.40852 11.9381 4.95871 13.2952 5.93806 14.2959C6.91742 15.2966 8.2457 15.8587 9.63072 15.8587Z" fill="#767676"/>
</svg>
